<svg width="120" height="120" viewBox="0 0 120 120" fill="none" xmlns="http://www.w3.org/2000/svg">
<rect width="120" height="120" rx="60" fill="white"/>
<path d="M76.6839 68.1127C76.6636 68.1044 76.6432 68.0969 76.6227 68.0899C74.6385 67.3529 73.0576 67.1134 72.8534 67.0662C72.7156 66.6204 72.484 66.1981 72.1577 65.8319C70.5812 64.063 68.6902 63.0891 67.667 62.6542V61.3641C69.9018 59.7579 71.4685 57.6508 72.1248 54.4501H73.3771C75.3253 54.4501 76.9104 52.8651 76.9104 50.9169V48.7874C76.9104 47.2057 75.8656 45.8633 74.4274 45.4143V42.3267C74.8546 42.038 75.1491 41.5846 75.2356 41.0756L76.0079 36.5341L80.7074 34.7501V36.2908C79.8457 36.4161 79.1559 37.1047 79.0527 37.9929L78.4963 42.7908C78.3628 43.9439 79.2636 44.9643 80.4324 44.9643H83.0916C84.2526 44.9643 85.1624 43.9516 85.0277 42.7905L84.4713 37.9929C84.3682 37.1049 83.6784 36.4161 82.8165 36.2908V32.9812C82.8165 32.9799 82.8167 32.9788 82.8167 32.9775C82.8165 32.3873 82.4599 31.8707 81.9082 31.6614L76.1376 29.4709C75.5926 29.2639 74.9839 29.5381 74.7771 30.0826C74.5704 30.6273 74.8444 31.2363 75.3889 31.443L79.4327 32.978L75.1688 34.5966C75.0138 34.4978 74.8427 34.4194 74.6568 34.3678C64.8805 31.6566 55.3761 31.6569 45.6007 34.3678C45.4148 34.4192 45.2435 34.4978 45.0885 34.5966L40.8246 32.978L57.7853 26.5397C59.2962 25.966 60.961 25.9658 62.4725 26.5397L70.7733 29.6907C71.3182 29.8978 71.9268 29.6235 72.1337 29.079C72.3404 28.5343 72.0665 27.9253 71.522 27.7186L63.2211 24.5677C61.2268 23.8108 59.0307 23.8108 57.0366 24.5677L38.3495 31.6613C37.7976 31.8707 37.4409 32.3873 37.4409 32.9775C37.4408 33.5677 37.7973 34.0847 38.3494 34.2943L44.2498 36.5341L45.0223 41.0754C45.1088 41.5845 45.4033 42.038 45.8305 42.3266V45.4134C44.3934 45.8617 43.3475 47.2047 43.3475 48.7873V50.9168C43.3475 52.8649 44.9324 54.45 46.8808 54.45H48.1334C48.7358 57.4702 50.1773 59.5506 52.333 61.1738V62.6542C51.3096 63.089 49.4187 64.0631 47.8424 65.8319C47.5161 66.1979 47.2845 66.6202 47.1467 67.066C47.0962 67.0777 45.0119 67.4194 43.3158 68.1127C35.0877 71.1979 29.4197 79.1332 29.4197 88.1592V90.619C29.4197 93.5861 31.8336 96 34.8007 96H85.1993C88.1663 96 90.5803 93.5861 90.5803 90.619V88.1592C90.5803 79.1329 84.9121 71.1976 76.6839 68.1127ZM82.3926 38.378L82.9117 42.855H80.6124L81.1316 38.378H82.3926ZM68.1804 65.2802C68.9377 65.7316 69.8124 66.371 70.5827 67.2353C70.954 67.6521 70.9929 68.2625 70.6934 68.7127C70.6931 68.7133 70.6928 68.7139 70.6924 68.7144C70.6897 68.7184 70.6872 68.7223 70.6847 68.7264L66.531 74.9285C66.5309 74.9288 66.5306 74.9291 66.5305 74.9293C66.1729 75.4633 65.4658 75.6146 64.9213 75.2742C63.9167 74.6464 62.3778 73.685 61.7636 73.3012L66.5445 69.0713C67.6413 68.1007 68.2208 66.6973 68.1804 65.2802ZM64.8516 77.4913C64.5059 78.0328 64.0037 78.8197 63.2744 79.9627L62.5966 78.0043L63.4476 76.8404C63.6782 76.967 64.0992 77.326 64.8516 77.4913ZM65.8895 64.4328C66.3042 65.5023 66.0058 66.7315 65.1467 67.4914L60 72.0448L54.8534 67.4914C53.9943 66.7315 53.6958 65.5024 54.1106 64.433C54.2677 63.9454 54.4423 63.7324 54.4423 63.3801V62.4854C57.8785 64.199 61.9528 64.3078 65.5575 62.6083V63.3801C65.5575 63.6502 65.6424 63.7888 65.8895 64.4328ZM60 74.6865L61.6537 75.7198L60.8838 76.7728H59.1162L58.3462 75.7198L60 74.6865ZM59.3319 78.8822H60.6682L61.8273 82.231C61.5404 82.6807 61.2324 83.1634 60.9004 83.6838C60.4818 84.3455 59.5221 84.3515 59.0977 83.6804C58.7664 83.1613 58.4593 82.6798 58.173 82.231L59.3319 78.8822ZM72.3179 45.2541H71.117C70.4985 45.2541 69.9326 44.7996 69.9326 44.1413V41.9227C70.726 42.0789 71.521 42.2537 72.3179 42.4476V45.2541ZM74.8009 48.7874V50.9169C74.8009 51.702 74.1621 52.3408 73.3769 52.3408H72.3875C72.4248 51.6153 72.3945 52.5642 72.4058 47.3635H73.3726C73.3733 47.3635 73.374 47.3633 73.3748 47.3633C73.3757 47.3633 73.3762 47.3635 73.3771 47.3635C74.1621 47.3635 74.8009 48.0023 74.8009 48.7874ZM73.9001 36.3471L73.1954 40.4904C64.4401 38.2991 55.8878 38.2812 47.0622 40.4903L46.3575 36.3471C55.6219 33.8119 64.6353 33.8119 73.9001 36.3471ZM46.8808 52.3409C46.0957 52.3409 45.4568 51.7022 45.4568 50.9171V48.7876C45.4568 48.0025 46.0957 47.3636 46.8808 47.3636H46.8852H47.8558C47.8719 52.4368 47.8386 51.5386 47.8787 52.3409H46.8808ZM47.9398 45.2541V42.4475C48.7368 42.2536 49.5317 42.0786 50.3251 41.9226C50.3237 44.2894 50.3282 44.1509 50.3212 44.2427C50.2766 44.8099 49.758 45.2541 49.1409 45.2541C49.119 45.2541 47.86 45.2541 47.9398 45.2541ZM49.9684 51.8503L49.9651 47.2573C51.2932 46.9194 52.3153 45.7903 52.424 44.4087C52.4425 44.1742 52.431 44.2641 52.4345 41.5513C57.5815 40.7528 62.6762 40.7528 67.8234 41.5514C67.8269 44.2334 67.8154 44.1751 67.8339 44.4082C67.9428 45.7914 68.9667 46.9213 70.2966 47.2581C70.297 53.442 70.2846 51.5229 70.2973 51.8986C69.9603 64.9552 50.2606 64.9921 49.9684 51.8503ZM49.4173 67.2353C50.1875 66.3709 51.0623 65.7315 51.8196 65.2801C51.7793 66.697 52.3587 68.1007 53.4557 69.0713L58.2367 73.3012C57.5912 73.7017 56.7343 74.2358 55.079 75.2742C54.5346 75.6145 53.8278 75.4633 53.4701 74.9298L49.3156 68.7264C49.3129 68.7223 49.3102 68.7184 49.3076 68.7143C49.3073 68.7139 49.307 68.7133 49.3067 68.7129C49.0132 68.2719 49.039 67.6599 49.4173 67.2353ZM57.4033 78.0044L56.7255 79.9629C55.9961 78.8197 55.4939 78.0328 55.1483 77.4913C55.8992 77.3263 56.3138 76.9714 56.5524 76.8407L57.4033 78.0044ZM88.4709 90.619C88.4709 92.4231 87.0034 93.8907 85.1993 93.8907H79.7248V86.6507C79.7248 86.0681 79.2527 85.596 78.6701 85.596C78.0875 85.596 77.6154 86.0681 77.6154 86.6507V93.8907H42.3846V86.6507C42.3846 86.0681 41.9125 85.596 41.3299 85.596C40.7473 85.596 40.2752 86.0681 40.2752 86.6507V93.8907H34.8007C32.9966 93.8907 31.5291 92.4231 31.5291 90.619V88.1592C31.5291 80.3054 36.2896 73.3678 43.2909 70.3939L46.4575 75.4152C46.6581 75.7333 47.0005 75.9074 47.3506 75.9074C47.5429 75.9074 47.7376 75.8548 47.9123 75.7447C48.4049 75.4341 48.5526 74.7827 48.2418 74.2899L45.3237 69.6627C46.322 69.3657 47.0067 69.2467 47.2061 69.203C47.5863 70.2409 47.0825 68.77 57.3173 84.8116C58.5653 86.785 61.4387 86.7787 62.6809 84.815C70.6985 72.2473 72.4308 69.8999 72.4449 69.8886C72.5879 69.6742 72.7173 69.4125 72.7941 69.2028C73.0106 69.2502 73.6467 69.3561 74.6765 69.6624L64.4266 85.9154C62.3889 89.1464 57.6105 89.1455 55.5735 85.9154L50.8729 78.4616C50.5622 77.9688 49.9108 77.8214 49.4181 78.1321C48.9255 78.4427 48.7778 79.0941 49.0886 79.5868L53.7893 87.0407C56.6547 91.584 63.3453 91.5841 66.2106 87.0407L76.7089 70.3935C83.7102 73.3674 88.4708 80.305 88.4708 88.1589V90.619H88.4709Z" fill="black"/>
</svg>
