<svg width="638" height="448" viewBox="0 0 638 448" fill="none" xmlns="http://www.w3.org/2000/svg">
<path opacity="0.2" d="M637.743 448C638.293 440.923 637.943 433.805 636.702 426.817C630.185 390.148 600.078 355.075 562.798 355.346C541.406 355.488 521.682 366.814 504.226 379.236C486.77 391.658 469.998 405.761 449.761 412.927C429.523 420.093 404.452 418.625 389.933 402.884C378.524 390.547 373.475 370.119 357.131 366.301C336.666 361.514 321.278 387.812 300.356 389.835C285.509 391.259 272.104 379.62 265.757 366.13C259.411 352.639 258.284 337.41 255.446 322.78C252.608 308.15 247.36 292.864 235.48 283.932C218.009 270.74 193.108 275.584 172.728 283.419C152.349 291.254 131.113 301.739 109.564 297.836C79.1294 292.337 61.0742 260.925 51.091 231.693C38.0943 194.011 31.2376 154.489 30.7824 114.635C30.5257 89.5487 32.7363 63.8352 25.2917 39.8881C20.2716 23.6764 9.26163 8.27677 -5 0V448H637.743Z" fill="#FFC634"/>
</svg>
